<?xml version="1.0" encoding="UTF-8"?>
<svg version="1.1" xmlns="http://www.w3.org/2000/svg" width="256" height="256">
<path d="M0 0 C1.59843071 -0.00202573 3.19686051 -0.0049413 4.79528809 -0.00869751 C8.13038003 -0.01309743 11.46522943 -0.00676567 14.80029297 0.00732422 C19.05005965 0.02441484 23.29925771 0.01456104 27.5490036 -0.00339317 C30.84523716 -0.01429451 34.1413385 -0.01075576 37.43757629 -0.0030098 C39.0034848 -0.00102528 40.56940577 -0.00340473 42.13529968 -0.01044846 C55.36115883 -0.05690228 66.17706742 1.25052757 76.40625 10.3984375 C87.76398458 23.31465821 87.55927134 37.80855109 87.57421875 54.2109375 C87.57754715 55.50104736 87.58087555 56.79115723 87.58430481 58.12036133 C87.59024426 60.8331791 87.59214994 63.54596526 87.59155273 66.25878906 C87.59145101 69.7045576 87.60513716 73.15012059 87.62232494 76.59584045 C87.6362237 79.92587523 87.63553598 83.2558742 87.63671875 86.5859375 C87.64390427 87.80708252 87.65108978 89.02822754 87.65849304 90.28637695 C87.62207695 104.07466592 85.65266922 115.2704717 76.20703125 125.765625 C64.05874693 136.78077217 49.54693939 136.55173565 34.06640625 136.56640625 C32.82306015 136.56973465 31.57971405 136.57306305 30.2986908 136.57649231 C27.68423835 136.58152706 25.06977955 136.58390171 22.45532227 136.58374023 C18.48377808 136.58592922 14.51251092 136.60412914 10.54101562 136.62304688 C7.98698011 136.62598113 5.43294328 136.62796571 2.87890625 136.62890625 C1.12055199 136.63968452 1.12055199 136.63968452 -0.67332458 136.65068054 C-14.73891174 136.61220714 -26.92909564 135.05820426 -37.46875 125.0859375 C-41.13163833 121.19694496 -43.72716391 117.39856707 -45.59375 112.3984375 C-46.10357674 111.08295929 -46.10357674 111.08295929 -46.623703 109.74090576 C-47.71552364 105.97884492 -47.85460085 102.81514977 -47.8684082 98.89941406 C-47.87351913 98.17332947 -47.87863007 97.44724487 -47.88389587 96.69915771 C-47.89773002 94.31237407 -47.89683924 91.92588135 -47.89453125 89.5390625 C-47.8984227 87.86765436 -47.90275829 86.1962472 -47.90751648 84.52484131 C-47.91496626 81.02466627 -47.91469727 77.52459212 -47.90942383 74.02441406 C-47.90364295 69.56157643 -47.92053262 65.09915568 -47.9437685 60.63638687 C-47.95857846 57.18403754 -47.95936751 53.73178679 -47.95625877 50.27941132 C-47.95676874 48.63534472 -47.96194492 46.99127213 -47.97207069 45.34723663 C-48.04882747 31.13775648 -46.62848029 20.23390178 -36.59375 9.3984375 C-25.6483759 0.61356954 -13.44272851 -0.0604683 0 0 Z M6.62109375 55.28125 C-0.32248363 62.58861389 -6.53289302 64.9861073 -16.59375 65.3984375 C-16.26375 66.0584375 -15.93375 66.7184375 -15.59375 67.3984375 C-13.54910807 67.93080493 -11.48112884 68.3748732 -9.40625 68.7734375 C-0.95502768 70.64431878 3.12792437 73.91102547 8.6171875 80.35546875 C13.52662703 86.23440191 13.52662703 86.23440191 20.40625 88.6484375 C25.95173976 86.33781677 29.69197261 82.34895893 33.46875 77.7734375 C37.4077037 73.01299078 41.8621069 69.81388698 48.10546875 69.08203125 C49.09160156 69.00082031 50.07773438 68.91960937 51.09375 68.8359375 C52.08761719 68.75214844 53.08148438 68.66835937 54.10546875 68.58203125 C54.86472656 68.52144531 55.62398438 68.46085937 56.40625 68.3984375 C54.75537738 65.15950026 54.75537738 65.15950026 51.8671875 64.87890625 C50.33964844 64.73388672 50.33964844 64.73388672 48.78125 64.5859375 C39.09300656 63.15235494 34.30342026 57.68673526 28.265625 50.3515625 C25.62361703 47.57634405 23.37564195 46.59672222 19.65625 45.8359375 C13.96280887 46.82134077 10.4864186 51.20447411 6.62109375 55.28125 Z " fill="#475967" transform="translate(108.59375,58.6015625)"/>
<path d="M0 0 C7.66702455 4.27534081 13.68100779 11.52663606 19.6875 17.8125 C25.4860186 23.29758516 30.40701605 24.0936439 38.171875 24.31640625 C38.8542926 24.33718735 39.53671021 24.35796844 40.23980713 24.37937927 C42.40977356 24.44452052 44.57985624 24.50359404 46.75 24.5625 C48.22527221 24.60571897 49.70053287 24.64933432 51.17578125 24.69335938 C54.78373166 24.80016518 58.39181133 24.90153153 62 25 C62.19513381 31.63414419 62.37215836 38.26860178 62.53710938 44.90356445 C62.59519818 47.15660319 62.65730123 49.40954239 62.72363281 51.66235352 C62.81873276 54.91664477 62.89897663 58.17103079 62.9765625 61.42578125 C63.02485703 62.91553215 63.02485703 62.91553215 63.0741272 64.43537903 C63.35076022 77.60293149 60.753825 88.41936111 51.80078125 98.3671875 C39.65249693 109.38233467 25.14068939 109.15329815 9.66015625 109.16796875 C8.41681015 109.17129715 7.17346405 109.17462555 5.8924408 109.17805481 C3.27798835 109.18308956 0.66352955 109.18546421 -1.95092773 109.18530273 C-5.92247192 109.18749172 -9.89373908 109.20569164 -13.86523438 109.22460938 C-16.41926989 109.22754363 -18.97330672 109.22952821 -21.52734375 109.23046875 C-23.28569801 109.24124702 -23.28569801 109.24124702 -25.07957458 109.25224304 C-39.14516174 109.21376964 -51.33534564 107.65976676 -61.875 97.6875 C-65.53788833 93.79850746 -68.13341391 90.00012957 -70 85 C-70.341521 84.11578369 -70.68304199 83.23156738 -71.03491211 82.32055664 C-72.09804527 78.66265781 -72.22782602 75.65564402 -72.1953125 71.8515625 C-72.1924826 71.19417084 -72.18965271 70.53677917 -72.18673706 69.85946655 C-72.17563447 67.78111767 -72.15054986 65.70321634 -72.125 63.625 C-72.11495731 62.20703752 -72.10583373 60.78906821 -72.09765625 59.37109375 C-72.07572805 55.91391963 -72.04126818 52.45700358 -72 49 C-67.16200639 48.90048431 -62.32461975 48.82822963 -57.48583984 48.78027344 C-55.8428305 48.76026429 -54.19989141 48.73304787 -52.55712891 48.69824219 C-50.18374212 48.64924695 -47.81130351 48.62692496 -45.4375 48.609375 C-44.35106201 48.57840729 -44.35106201 48.57840729 -43.24267578 48.54681396 C-35.14108867 48.54331788 -28.69074872 52.35371025 -23 58 C-21.19336634 60.02036487 -19.42890034 62.07256141 -17.66796875 64.1328125 C-13.83283895 68.4260023 -10.59563151 70.63661159 -4.875 71.4375 C3.91914208 70.44461299 9.49159478 63.83398981 14.84277344 57.31542969 C18.32040755 53.23046388 21.73601256 50.374212 27 49 C32.84543326 48.53081382 38.64201398 48.62207529 44.5 48.75 C46.10154021 48.77009217 47.70310471 48.78833815 49.3046875 48.8046875 C53.20373081 48.84847729 57.10159466 48.91735279 61 49 C61 46.69 61 44.38 61 42 C60.13197754 42.01571045 59.26395508 42.0314209 58.36962891 42.04760742 C55.15301713 42.09869555 51.93661187 42.13633027 48.71972656 42.16479492 C47.32675378 42.17989358 45.93382862 42.20037444 44.54101562 42.22631836 C42.54057115 42.26265122 40.53978173 42.27811192 38.5390625 42.29296875 C36.73236084 42.31653442 36.73236084 42.31653442 34.88916016 42.34057617 C33.9357373 42.22818604 32.98231445 42.1157959 32 42 C31.34 41.01 30.68 40.02 30 39 C27.80545319 38.42006301 27.80545319 38.42006301 25.375 38.3125 C24.55773437 38.24675781 23.74046875 38.18101563 22.8984375 38.11328125 C22.27195312 38.07589844 21.64546875 38.03851563 21 38 C21 37.67 21 37.34 21 37 C34.2 37 47.4 37 61 37 C61 34.69 61 32.38 61 30 C59.99211426 30.0314209 58.98422852 30.0628418 57.94580078 30.09521484 C54.16276739 30.20481595 50.37987044 30.27305348 46.59570312 30.32958984 C44.96623035 30.35953865 43.33691567 30.40031422 41.70800781 30.45263672 C30.56421896 30.80130741 22.85704578 30.37532791 14.31103516 22.4296875 C12.87518471 20.94324898 11.5540137 19.41509628 10.25 17.8125 C5.8823472 12.52016395 2.11063354 9.40137207 -4.875 8.5 C-11.37026366 8.84379467 -15.3868397 12.27028187 -19.703125 16.8984375 C-21.12592842 18.4842276 -22.52402987 20.0783825 -23.88012695 21.72167969 C-27.48902598 25.9494199 -31.44740103 28.53652795 -36.97337341 29.25744629 C-39.10236469 29.34445014 -41.20960582 29.33818658 -43.33984375 29.29296875 C-44.10680069 29.28872391 -44.87375763 29.28447906 -45.66395569 29.28010559 C-48.08884332 29.2634507 -50.51286798 29.22582553 -52.9375 29.1875 C-54.59178478 29.17243601 -56.24608273 29.15875062 -57.90039062 29.14648438 C-61.93392103 29.11359077 -65.96681473 29.06190249 -70 29 C-69.67 27.68 -69.34 26.36 -69 25 C-67.79839233 24.98598145 -67.79839233 24.98598145 -66.57250977 24.97167969 C-62.90190881 24.91761061 -59.23253238 24.8340326 -55.5625 24.75 C-54.30244141 24.73582031 -53.04238281 24.72164062 -51.74414062 24.70703125 C-42.68879354 24.47059921 -34.95388237 23.32528232 -28.125 16.9375 C-27.48304687 16.34453125 -26.84109375 15.7515625 -26.1796875 15.140625 C-22.57182765 11.59742213 -19.02788374 7.99316531 -15.515625 4.35546875 C-10.81117656 -0.04947288 -6.34393063 -1.31570265 0 0 Z " fill="#3C4D5B" transform="translate(133,86)"/>
<path d="M0 0 C7.66702455 4.27534081 13.68100779 11.52663606 19.6875 17.8125 C25.4860186 23.29758516 30.40701605 24.0936439 38.171875 24.31640625 C38.8542926 24.33718735 39.53671021 24.35796844 40.23980713 24.37937927 C42.40977356 24.44452052 44.57985624 24.50359404 46.75 24.5625 C48.22527221 24.60571897 49.70053287 24.64933432 51.17578125 24.69335938 C54.78373699 24.80090811 58.39178678 24.90024352 62 25 C62 34.24 62 43.48 62 53 C48.125 53.25 48.125 53.25 43.81298828 53.29785156 C31.05263112 53.63679576 24.12194839 56.15164978 15.20703125 65.36328125 C14.35496094 66.27464844 13.50289063 67.18601562 12.625 68.125 C10.89243637 69.94431939 9.15563188 71.75961212 7.4140625 73.5703125 C6.6607666 74.37227051 5.9074707 75.17422852 5.13134766 76.00048828 C1.77502638 79.14920205 -0.27085994 79.92943806 -4.875 80.375 C-13.18036441 80.08438872 -18.68466812 72.68899317 -24 67 C-25.17152493 65.56645659 -26.33854458 64.1292138 -27.5 62.6875 C-31.85585835 57.59043498 -37.54517816 55.36850356 -44 54 C-46.02350669 53.85374965 -48.05053334 53.75316797 -50.078125 53.68359375 C-51.23828125 53.64169922 -52.3984375 53.59980469 -53.59375 53.55664062 C-55.40359375 53.49766602 -55.40359375 53.49766602 -57.25 53.4375 C-58.47203125 53.39431641 -59.6940625 53.35113281 -60.953125 53.30664062 C-63.9686392 53.20062645 -66.98423448 53.09856064 -70 53 C-70 51.68 -70 50.36 -70 49 C-65.44684078 48.90041879 -60.89432848 48.82820015 -56.34033203 48.78027344 C-54.79432113 48.76027497 -53.24838473 48.73306669 -51.70263672 48.69824219 C-40.76371377 48.45813671 -33.13889313 48.929212 -24.5 56.51171875 C-22.0721289 58.9206221 -19.88892381 61.53434411 -17.66796875 64.1328125 C-13.83283895 68.4260023 -10.59563151 70.63661159 -4.875 71.4375 C3.91914208 70.44461299 9.49159478 63.83398981 14.84277344 57.31542969 C18.32040755 53.23046388 21.73601256 50.374212 27 49 C32.84543326 48.53081382 38.64201398 48.62207529 44.5 48.75 C46.10154021 48.77009217 47.70310471 48.78833815 49.3046875 48.8046875 C53.20373081 48.84847729 57.10159466 48.91735279 61 49 C61 46.69 61 44.38 61 42 C60.13197754 42.01571045 59.26395508 42.0314209 58.36962891 42.04760742 C55.15301713 42.09869555 51.93661187 42.13633027 48.71972656 42.16479492 C47.32675378 42.17989358 45.93382862 42.20037444 44.54101562 42.22631836 C42.54057115 42.26265122 40.53978173 42.27811192 38.5390625 42.29296875 C36.73236084 42.31653442 36.73236084 42.31653442 34.88916016 42.34057617 C33.9357373 42.22818604 32.98231445 42.1157959 32 42 C31.34 41.01 30.68 40.02 30 39 C27.80545319 38.42006301 27.80545319 38.42006301 25.375 38.3125 C24.55773437 38.24675781 23.74046875 38.18101563 22.8984375 38.11328125 C22.27195312 38.07589844 21.64546875 38.03851563 21 38 C21 37.67 21 37.34 21 37 C34.2 37 47.4 37 61 37 C61 34.69 61 32.38 61 30 C59.99211426 30.0314209 58.98422852 30.0628418 57.94580078 30.09521484 C54.16276739 30.20481595 50.37987044 30.27305348 46.59570312 30.32958984 C44.96623035 30.35953865 43.33691567 30.40031422 41.70800781 30.45263672 C30.56421896 30.80130741 22.85704578 30.37532791 14.31103516 22.4296875 C12.87518471 20.94324898 11.5540137 19.41509628 10.25 17.8125 C5.8823472 12.52016395 2.11063354 9.40137207 -4.875 8.5 C-11.37026366 8.84379467 -15.3868397 12.27028187 -19.703125 16.8984375 C-21.12592842 18.4842276 -22.52402987 20.0783825 -23.88012695 21.72167969 C-27.48902598 25.9494199 -31.44740103 28.53652795 -36.97337341 29.25744629 C-39.10236469 29.34445014 -41.20960582 29.33818658 -43.33984375 29.29296875 C-44.10680069 29.28872391 -44.87375763 29.28447906 -45.66395569 29.28010559 C-48.08884332 29.2634507 -50.51286798 29.22582553 -52.9375 29.1875 C-54.59178478 29.17243601 -56.24608273 29.15875062 -57.90039062 29.14648438 C-61.93392103 29.11359077 -65.96681473 29.06190249 -70 29 C-69.67 27.68 -69.34 26.36 -69 25 C-67.79839233 24.98598145 -67.79839233 24.98598145 -66.57250977 24.97167969 C-62.90190881 24.91761061 -59.23253238 24.8340326 -55.5625 24.75 C-54.30244141 24.73582031 -53.04238281 24.72164062 -51.74414062 24.70703125 C-42.68879354 24.47059921 -34.95388237 23.32528232 -28.125 16.9375 C-27.48304687 16.34453125 -26.84109375 15.7515625 -26.1796875 15.140625 C-22.57182765 11.59742213 -19.02788374 7.99316531 -15.515625 4.35546875 C-10.81117656 -0.04947288 -6.34393063 -1.31570265 0 0 Z " fill="#4C5D6B" transform="translate(133,86)"/>
<path d="M0 0 C2.97 0 5.94 0 9 0 C9.01417969 0.82242188 9.02835938 1.64484375 9.04296875 2.4921875 C9.41303969 11.1538479 10.69805506 18.26685778 16.67578125 24.84375 C22.35489932 29.98140005 27.66508916 32.36934893 35.40722656 32.41992188 C36.4817231 32.43262619 36.4817231 32.43262619 37.57792664 32.44558716 C39.93234307 32.46887279 42.28610238 32.46998109 44.640625 32.46875 C46.28961443 32.47585871 47.9386014 32.48355874 49.58758545 32.49182129 C53.04071934 32.50524821 56.4936247 32.50684387 59.94677734 32.50097656 C64.34935955 32.49509415 68.75083376 32.52561888 73.15320206 32.56609344 C76.55926309 32.59208258 79.96506169 32.59483755 83.37120819 32.59120178 C84.99296595 32.59288381 86.61473705 32.60243705 88.23639679 32.62034607 C97.64111215 32.71275425 104.81190886 32.10687216 113 27 C113.99 26.67 114.98 26.34 116 26 C117.11464935 24.13568365 117.11464935 24.13568365 118 22 C118.66 20.88625 119.32 19.7725 120 18.625 C122.9523874 12.83038891 123.31858113 6.38381893 124 0 C126.97 0 129.94 0 133 0 C133.64044689 13.34264355 132.0817375 22.29200551 123.28125 32.734375 C111.43211175 44.50235477 96.29577717 44.15315118 80.66015625 44.16796875 C79.41681015 44.17129715 78.17346405 44.17462555 76.8924408 44.17805481 C74.27798835 44.18308956 71.66352955 44.18546421 69.04907227 44.18530273 C65.07752808 44.18749172 61.10626092 44.20569164 57.13476562 44.22460938 C54.58073011 44.22754363 52.02669328 44.22952821 49.47265625 44.23046875 C47.71430199 44.24124702 47.71430199 44.24124702 45.92042542 44.25224304 C31.85483826 44.21376964 19.66465436 42.65976676 9.125 32.6875 C-0.1540597 22.80185866 -0.17723663 13.09581749 0 0 Z " fill="#C8D2D8" transform="translate(62,151)"/>
<path d="M0 0 C1.59843071 -0.00202573 3.19686051 -0.0049413 4.79528809 -0.00869751 C8.13038003 -0.01309743 11.46522943 -0.00676567 14.80029297 0.00732422 C19.05005965 0.02441484 23.29925771 0.01456104 27.5490036 -0.00339317 C30.84523716 -0.01429451 34.1413385 -0.01075576 37.43757629 -0.0030098 C39.0034848 -0.00102528 40.56940577 -0.00340473 42.13529968 -0.01044846 C55.36115883 -0.05690228 66.17706742 1.25052757 76.40625 10.3984375 C82.34025622 17.14669645 86.47336011 24.66219572 86.65625 33.7734375 C86.40625 37.3984375 86.40625 37.3984375 85.40625 40.3984375 C82.76625 40.3984375 80.12625 40.3984375 77.40625 40.3984375 C77.31988281 39.625 77.23351562 38.8515625 77.14453125 38.0546875 C76.29466023 31.75472616 75.20196509 27.08967725 71.4296875 21.921875 C70.40625 20.3984375 70.40625 20.3984375 70.40625 18.3984375 C69.83003906 18.11097656 69.25382812 17.82351562 68.66015625 17.52734375 C67.22835175 16.81020077 65.79842964 16.08927743 64.37109375 15.36328125 C63.70207031 15.02425781 63.03304687 14.68523437 62.34375 14.3359375 C61.67214844 13.99433594 61.00054687 13.65273437 60.30859375 13.30078125 C56.29700638 11.39795439 53.07388549 11.26171337 48.67504883 11.23730469 C47.99495758 11.23233978 47.31486633 11.22737488 46.61416626 11.22225952 C44.36386093 11.20765466 42.1136262 11.20083724 39.86328125 11.1953125 C38.29489643 11.18955782 36.72651163 11.18380013 35.15812683 11.17803955 C31.86705193 11.16753305 28.57600142 11.1616887 25.28491211 11.15820312 C21.08300398 11.15273189 16.8814221 11.12873202 12.67961597 11.10023117 C9.43752629 11.08153341 6.19551389 11.07639532 2.95337486 11.07486725 C1.40533358 11.07185415 -0.14270678 11.0638713 -1.69069481 11.05068207 C-13.45268034 10.95765517 -22.80406268 11.83412678 -31.59375 20.3984375 C-36.7334164 26.81029856 -37.44426725 33.36713696 -37.59375 41.3984375 C-40.56375 41.3984375 -43.53375 41.3984375 -46.59375 41.3984375 C-46.92681078 29.90784052 -46.27354499 21.14015463 -38.9296875 11.84765625 C-28.31076354 0.71376775 -14.44977774 -0.06499823 0 0 Z " fill="#E3ECEF" transform="translate(108.59375,58.6015625)"/>
<path d="M0 0 C4.27059561 -0.11765973 8.54076597 -0.18773631 12.8125 -0.25 C14.00810547 -0.28351563 15.20371094 -0.31703125 16.43554688 -0.3515625 C27.19841612 -0.46886898 36.06608319 1.36467457 44.02734375 8.93359375 C47.05018988 12.1000999 49.96718852 15.35130661 52.82421875 18.66796875 C57.5495851 23.73267918 60.81931526 26.0310239 67.734375 26.42578125 C75.80596361 24.90887925 81.7543732 16.23321099 87.015625 10.5546875 C94.43772525 2.85298758 100.56863116 -0.12073136 111.3203125 -0.390625 C113.92216453 -0.36434367 116.52388037 -0.31709237 119.125 -0.25 C120.47653576 -0.22988593 121.82810074 -0.2116439 123.1796875 -0.1953125 C126.45388691 -0.14853822 129.72655248 -0.0830014 133 0 C133 2.64 133 5.28 133 8 C132.23445801 7.99887207 131.46891602 7.99774414 130.68017578 7.99658203 C127.16092321 8.00879981 123.64377727 8.06659706 120.125 8.125 C118.92101562 8.12242187 117.71703125 8.11984375 116.4765625 8.1171875 C106.47323819 8.33465107 100.10531803 11.05656693 92.79296875 17.81640625 C91.50326172 19.17572266 91.50326172 19.17572266 90.1875 20.5625 C89.31480469 21.47128906 88.44210938 22.38007813 87.54296875 23.31640625 C86.70378906 24.20199219 85.86460937 25.08757812 85 26 C79.74252281 31.39809322 74.76546197 36.00562248 66.9375 36.375 C57.69679749 36.13840986 51.17821792 30.71389153 45.015625 24.30859375 C43.89414063 23.10396484 43.89414063 23.10396484 42.75 21.875 C35.24185677 13.89759782 29.58807442 9.10168362 18.359375 8.68359375 C17.28945312 8.64169922 16.21953125 8.59980469 15.1171875 8.55664062 C14.00601563 8.51732422 12.89484375 8.47800781 11.75 8.4375 C10.62335938 8.39431641 9.49671875 8.35113281 8.3359375 8.30664062 C5.55741046 8.20067985 2.77879609 8.09860858 0 8 C0 5.36 0 2.72 0 0 Z " fill="#D7E0E5" transform="translate(62,139)"/>
<path d="M0 0 C1.11628784 -0.01389771 1.11628784 -0.01389771 2.25512695 -0.02807617 C9.15233435 0.44571165 13.27351268 6.04243023 17.6640625 10.74609375 C18.48003906 11.6071875 19.29601562 12.46828125 20.13671875 13.35546875 C21.35681641 14.66257813 21.35681641 14.66257813 22.6015625 15.99609375 C25.58850726 18.42158273 27.38635901 18.94399518 31.19921875 19.10546875 C36.70288046 16.53709328 40.07382913 11.9634478 44.01953125 7.453125 C47.56576414 3.6336161 51.62653378 0.2619077 57.07853699 0.0231781 C57.78247086 0.0431636 58.48640472 0.06314911 59.21166992 0.08374023 C60.01227341 0.10383652 60.81287689 0.1239328 61.63774109 0.14463806 C62.4972084 0.17167313 63.35667572 0.19870819 64.2421875 0.2265625 C65.12578445 0.25017349 66.00938141 0.27378448 66.91975403 0.29811096 C69.74224133 0.3746911 72.56445035 0.45873984 75.38671875 0.54296875 C77.30011659 0.59619509 79.21352801 0.64893545 81.12695312 0.70117188 C85.81788459 0.83029865 90.50858014 0.96612408 95.19921875 1.10546875 C95.19921875 3.41546875 95.19921875 5.72546875 95.19921875 8.10546875 C93.71711914 8.1194873 93.71711914 8.1194873 92.20507812 8.13378906 C88.50704374 8.17393811 84.8098197 8.23976269 81.11230469 8.31298828 C79.51801028 8.34105457 77.92358043 8.36233988 76.32910156 8.37646484 C62.8202551 8.47558466 62.8202551 8.47558466 51.09765625 14.78125 C50.34355469 15.59142578 50.34355469 15.59142578 49.57421875 16.41796875 C49.00445312 17.01867187 48.4346875 17.619375 47.84765625 18.23828125 C46.24617536 20.05228093 44.72339777 21.91395441 43.19921875 23.79296875 C39.39664626 28.27132999 35.65998753 30.75393035 29.69921875 31.60546875 C21.42513541 30.42345684 16.6859511 24.92930966 11.19921875 19.10546875 C5.31668647 12.94281588 0.37148204 9.09459079 -8.32450867 8.83970642 C-9.41684563 8.81463768 -9.41684563 8.81463768 -10.53125 8.7890625 C-11.28167068 8.7682814 -12.03209137 8.74750031 -12.80525208 8.72608948 C-15.19950309 8.66076949 -17.59386264 8.60179083 -19.98828125 8.54296875 C-21.61264138 8.49976682 -23.23699058 8.45615199 -24.86132812 8.41210938 C-28.84103496 8.30510612 -32.82085083 8.20378938 -36.80078125 8.10546875 C-36.80078125 5.79546875 -36.80078125 3.48546875 -36.80078125 1.10546875 C-32.56908027 0.96090037 -28.33731088 0.81858385 -24.10546875 0.67822266 C-22.67022735 0.63031697 -21.23500523 0.58182942 -19.79980469 0.53271484 C-6.52515489 0.07911802 -6.52515489 0.07911802 0 0 Z " fill="#DBE3E8" transform="translate(98.80078125,126.89453125)"/>
<path d="M0 0 C5.54481685 3.07424322 9.30162668 7.68754756 13.27734375 12.54296875 C22.24888651 21.30060376 31.23416972 21.03479371 43.125 21.07421875 C44.77021497 21.09739536 46.41540056 21.1227672 48.06054688 21.15039062 C52.0613077 21.21283538 56.0612957 21.2454912 60.0625 21.26171875 C60.0625 23.57171875 60.0625 25.88171875 60.0625 28.26171875 C54.0852332 28.41069204 48.10906058 28.51922987 42.13037109 28.59130859 C40.09925498 28.62137286 38.06826753 28.66223658 36.03759766 28.71435547 C33.10807471 28.78762946 30.18027615 28.82127851 27.25 28.84765625 C26.35071777 28.87862396 25.45143555 28.90959167 24.52490234 28.9414978 C17.72405374 28.94508038 13.97155443 26.89655265 9.0625 22.26171875 C6.671875 19.77734375 6.671875 19.77734375 4.8125 17.51171875 C1.62106381 13.63451941 -0.73363534 11.71250925 -5.6875 10.69921875 C-11.33919565 11.67739684 -14.92626076 16.01224616 -18.65234375 20.1796875 C-23.64502645 25.6892597 -28.53151297 27.87529459 -36.02520752 28.41094971 C-41.87096613 28.62994518 -47.71485367 28.53535695 -53.5625 28.44921875 C-55.34764497 28.43414535 -57.13280224 28.42046164 -58.91796875 28.40820312 C-63.25812029 28.3754062 -67.59767217 28.32377084 -71.9375 28.26171875 C-71.9375 25.95171875 -71.9375 23.64171875 -71.9375 21.26171875 C-70.92437744 21.25760986 -69.91125488 21.25350098 -68.86743164 21.24926758 C-65.07054339 21.22732156 -61.27466886 21.17287563 -57.47827148 21.10913086 C-55.8423034 21.08608452 -54.20618977 21.07158681 -52.57006836 21.06616211 C-38.2166105 21.02477118 -38.2166105 21.02477118 -26.23706055 13.68188477 C-24.66270483 12.05394834 -23.1983906 10.37717166 -21.75 8.63671875 C-16.01986941 1.82499724 -9.34867787 -3.56229862 0 0 Z " fill="#E2EAEF" transform="translate(133.9375,94.73828125)"/>
<path d="M0 0 C5.37330748 3.78573936 10.01781739 7.9676553 14.25 13 C19.84311641 19.56140081 25.91964063 24.3128528 34.72607422 25.25634766 C35.7420166 25.28776855 36.75795898 25.31918945 37.8046875 25.3515625 C38.91328125 25.39023438 40.021875 25.42890625 41.1640625 25.46875 C42.87722656 25.51515625 42.87722656 25.51515625 44.625 25.5625 C45.7903125 25.60117188 46.955625 25.63984375 48.15625 25.6796875 C51.02067864 25.77360319 53.88510692 25.85927983 56.75 25.9375 C56.75 28.2475 56.75 30.5575 56.75 32.9375 C52.62410925 33.01227218 48.49848692 33.06639223 44.37207031 33.10229492 C42.97160969 33.11727914 41.57119517 33.13767379 40.17089844 33.16381836 C30.29983785 33.34335619 22.00654192 33.42005923 14.2421875 26.453125 C11.88338766 24.05727595 9.73120466 21.49111921 7.55078125 18.93359375 C4.08261258 15.08926795 -1.03729358 9.46377191 -6.30078125 8.6015625 C-7.04714844 8.58867188 -7.79351562 8.57578125 -8.5625 8.5625 C-9.30113281 8.53414062 -10.03976563 8.50578125 -10.80078125 8.4765625 C-18.29949213 9.88780314 -23.55681063 17.15924787 -28.5078125 22.44921875 C-33.93877546 28.07093867 -40.24786807 32.75398983 -48.34448242 33.05102539 C-50.20617065 33.04317017 -50.20617065 33.04317017 -52.10546875 33.03515625 C-53.09792351 33.03303383 -53.09792351 33.03303383 -54.11042786 33.03086853 C-56.21949828 33.02527996 -58.32846177 33.01272965 -60.4375 33 C-61.86913909 32.99498352 -63.30077985 32.99042087 -64.73242188 32.98632812 C-68.23831588 32.9753143 -71.7441475 32.95805755 -75.25 32.9375 C-75.25 30.6275 -75.25 28.3175 -75.25 25.9375 C-74.53980713 25.9281543 -73.82961426 25.91880859 -73.09790039 25.90917969 C-69.83543326 25.85502204 -66.57433076 25.77146431 -63.3125 25.6875 C-62.19552734 25.67332031 -61.07855469 25.65914062 -59.92773438 25.64453125 C-51.17718673 25.38791695 -43.79052298 23.84162712 -37.1875 17.75 C-36.53394531 17.14929688 -35.88039062 16.54859375 -35.20703125 15.9296875 C-33.14435908 13.82996134 -31.26790875 11.62828216 -29.375 9.375 C-21.28356545 0.18161911 -12.09570889 -3.95436637 0 0 Z " fill="#EAF3F6" transform="translate(137.25,78.0625)"/>
<path d="M0 0 C4.55315922 -0.09958121 9.10567152 -0.17179985 13.65966797 -0.21972656 C15.20567887 -0.23972503 16.75161527 -0.26693331 18.29736328 -0.30175781 C29.23628623 -0.54186329 36.86110687 -0.070788 45.5 7.51171875 C47.9278711 9.9206221 50.11107619 12.53434411 52.33203125 15.1328125 C56.16716105 19.4260023 59.40436849 21.63661159 65.125 22.4375 C73.91914208 21.44461299 79.49159478 14.83398981 84.84277344 8.31542969 C88.63044838 3.86627773 93.18729027 0.64069342 99.06251526 -0.34658813 C101.19925658 -0.45818377 103.29882739 -0.4515855 105.4375 -0.390625 C106.20304199 -0.38496521 106.96858398 -0.37930542 107.75732422 -0.37347412 C110.17222021 -0.35130835 112.58556223 -0.30115539 115 -0.25 C116.64971796 -0.22990915 118.29945948 -0.21166294 119.94921875 -0.1953125 C123.96673305 -0.15150943 127.98310426 -0.08262602 132 0 C132 1.32 132 2.64 132 4 C131.17387207 4.0093457 130.34774414 4.01869141 129.49658203 4.02832031 C126.38362331 4.07276003 123.27159076 4.13456064 120.15917969 4.20751953 C118.16884998 4.24908427 116.17814514 4.27124544 114.1875 4.29296875 C101.26674074 4.61925055 94.24477196 7.02473827 85.20703125 16.36328125 C84.35496094 17.27464844 83.50289063 18.18601563 82.625 19.125 C80.89243637 20.94431939 79.15563188 22.75961212 77.4140625 24.5703125 C76.6607666 25.37227051 75.9074707 26.17422852 75.13134766 27.00048828 C71.77502638 30.14920205 69.72914006 30.92943806 65.125 31.375 C56.81963559 31.08438872 51.31533188 23.68899317 46 18 C44.82847507 16.56645659 43.66145542 15.1292138 42.5 13.6875 C38.14414165 8.59043498 32.45482184 6.36850356 26 5 C23.97649331 4.85374965 21.94946666 4.75316797 19.921875 4.68359375 C18.76171875 4.64169922 17.6015625 4.59980469 16.40625 4.55664062 C15.1996875 4.51732422 13.993125 4.47800781 12.75 4.4375 C10.91695312 4.37272461 10.91695312 4.37272461 9.046875 4.30664062 C6.0313608 4.20062645 3.01576552 4.09856064 0 4 C0 2.68 0 1.36 0 0 Z " fill="#3A4C5A" transform="translate(63,135)"/>
<path d="M0 0 C7.79421319 -0.55672951 12.6936231 1.23187051 18.6875 6.25 C23.39002917 11.84219685 27.17117192 17.18913739 27.0625 24.6875 C27.05347656 25.49574219 27.04445312 26.30398437 27.03515625 27.13671875 C27.02355469 27.75160156 27.01195312 28.36648437 27 29 C29.64 29 32.28 29 35 29 C35.495 27.515 35.495 27.515 36 26 C37.14229879 29.42689636 36.90861076 31.61102218 36.5625 35.1875 C36.46066406 36.27417969 36.35882813 37.36085937 36.25390625 38.48046875 C36.17011719 39.31191406 36.08632812 40.14335938 36 41 C35.67 41 35.34 41 35 41 C35 38.69 35 36.38 35 34 C26.75 34 18.5 34 10 34 C10.33 32.35 10.66 30.7 11 29 C10.25723796 24.76625638 9.64197382 22.60987513 6.5 19.625 C3.05010192 17.38256625 1.36519408 16.96188778 -2.6875 16.875 C-7.89162957 16.42442601 -10.11325697 14.70545032 -13.4296875 10.7890625 C-15.23232562 8.61174736 -15.23232562 8.61174736 -19 6 C-11.41 6 -3.82 6 4 6 C4.33 4.35 4.66 2.7 5 1 C4.01 1.33 3.02 1.66 2 2 C1.34 1.34 0.68 0.68 0 0 Z " fill="#4F606D" transform="translate(159,70)"/>
<path d="M0 0 C2.97 0 5.94 0 9 0 C9.3403125 1.794375 9.3403125 1.794375 9.6875 3.625 C10.8149496 8.19157643 12.73437954 10.65273903 16 14 C18.50540092 15.25270046 20.3274373 15.07045142 23.125 15.125 C28.79006051 15.55619883 31.45540999 17.38610185 35.34375 21.40625 C37.01634643 23.2443008 37.01634643 23.2443008 40 24 C40 24.66 40 25.32 40 26 C15.49764269 26.92730901 15.49764269 26.92730901 7.703125 19.94140625 C2.68966192 14.67015872 0.11321276 10.50959566 -0.125 3.125 C-0.08375 2.09375 -0.0425 1.0625 0 0 Z " fill="#D5DFE5" transform="translate(77,151)"/>
<path d="M0 0 C1.39025391 0.01353516 1.39025391 0.01353516 2.80859375 0.02734375 C5.08100077 0.05077063 7.3528618 0.08357252 9.625 0.125 C9.02945313 0.71925781 8.43390625 1.31351562 7.8203125 1.92578125 C6.54919586 3.19915966 5.28800789 4.48294933 4.0546875 5.79296875 C0.64925523 9.12139376 -1.56353175 10.42756893 -6.375 10.625 C-11.15182153 10.8434522 -13.61305015 12.04194508 -17.03515625 15.359375 C-19.16104743 18.16084093 -19.75555297 20.68362763 -20.375 24.125 C-23.345 24.125 -26.315 24.125 -29.375 24.125 C-28.92663171 16.83901529 -28.0498568 11.52561375 -22.54296875 6.4296875 C-15.29244611 0.69026805 -9.03822779 -0.16761335 0 0 Z " fill="#EAF3F6" transform="translate(106.375,75.875)"/>
<path d="M0 0 C23.69143282 -1.06261602 23.69143282 -1.06261602 31 5 C34.68261404 8.41790183 37.76089915 12.04359658 39 17 C39.07646165 19.3320802 39.09143299 21.66845878 39 24 C36.36 24 33.72 24 31 24 C30.78085938 23.39671875 30.56171875 22.7934375 30.3359375 22.171875 C28.19160703 16.76746486 26.54750041 13.46555574 21 11 C19.35716533 10.85608225 17.71024405 10.75501 16.0625 10.6875 C11.88324974 10.44240111 10.04666278 9.63462682 7.125 6.625 C6.61195313 6.01914063 6.09890625 5.41328125 5.5703125 4.7890625 C3.88427166 2.8681503 2.08320566 1.46996763 0 0 Z " fill="#EBF4F7" transform="translate(140,76)"/>
<path d="M0 0 C2.64 0 5.28 0 8 0 C8.66649485 6.88711349 7.65367263 10.95282975 3.859375 16.76171875 C1.06917828 20.12050598 -2.10317748 22.11302513 -6 24 C-6.66 24.33 -7.32 24.66 -8 25 C-9.6674606 25.08426094 -11.33825187 25.10725143 -13.0078125 25.09765625 C-13.99394531 25.09443359 -14.98007813 25.09121094 -15.99609375 25.08789062 C-17.02863281 25.07951172 -18.06117188 25.07113281 -19.125 25.0625 C-20.68541016 25.05573242 -20.68541016 25.05573242 -22.27734375 25.04882812 C-24.85161962 25.03701952 -27.42578146 25.02055075 -30 25 C-29.22011719 24.39542969 -28.44023437 23.79085937 -27.63671875 23.16796875 C-24.91304165 21.07443996 -24.91304165 21.07443996 -22.8125 18.3125 C-19.253608 15.38629991 -16.85547938 15.41742294 -12.375 15.1640625 C-9.54078457 14.96827788 -7.45031457 14.45487428 -5 13 C-3.39099007 10.20572702 -2.36516487 7.31050961 -1.375 4.25 C-1.11460937 3.45078125 -0.85421875 2.6515625 -0.5859375 1.828125 C-0.39257812 1.22484375 -0.19921875 0.6215625 0 0 Z " fill="#D6E0E5" transform="translate(171,151)"/>
<path d="M0 0 C0.33 0 0.66 0 1 0 C1 5.94 1 11.88 1 18 C8.92 18 16.84 18 25 18 C25 18.33 25 18.66 25 19 C16.75 19 8.5 19 0 19 C0 21.31 0 23.62 0 26 C0.66 26.33 1.32 26.66 2 27 C1.67 27.99 1.34 28.98 1 30 C12.22 30 23.44 30 35 30 C35 30.33 35 30.66 35 31 C23.45 31 11.9 31 0 31 C0 33.31 0 35.62 0 38 C5.28374756 37.88120831 10.56732776 37.75692644 15.85083008 37.62768555 C17.64604232 37.58453063 19.44129048 37.54284295 21.23657227 37.50268555 C23.82579343 37.44450887 26.41483701 37.38095429 29.00390625 37.31640625 C29.79898087 37.29969376 30.59405548 37.28298126 31.41322327 37.26576233 C36.02181001 37.14485725 40.44918426 36.7439088 45 36 C42.37548383 38.62451617 40.5122172 38.5832868 36.875 39.125 C35.23144531 39.37636719 35.23144531 39.37636719 33.5546875 39.6328125 C32.71164063 39.75398438 31.86859375 39.87515625 31 40 C32.65 40.33 34.3 40.66 36 41 C36 41.33 36 41.66 36 42 C31.85758584 43.00013174 27.98519696 43.11516542 23.73046875 43.09765625 C23.04946609 43.0962413 22.36846344 43.09482635 21.66682434 43.09336853 C19.50700353 43.08780298 17.34728911 43.07525703 15.1875 43.0625 C13.71679838 43.05748054 12.24609512 43.05291841 10.77539062 43.04882812 C7.1835596 43.03784488 3.5917902 43.02060422 0 43 C0 45.31 0 47.62 0 50 C-0.33 50 -0.66 50 -1 50 C-1.02535173 43.52214391 -1.04286762 37.04430062 -1.05493164 30.56640625 C-1.05996088 28.36262534 -1.06678505 26.15884778 -1.07543945 23.95507812 C-1.0875666 20.78775204 -1.09324241 17.62047006 -1.09765625 14.453125 C-1.10281754 13.46757629 -1.10797882 12.48202759 -1.11329651 11.46661377 C-1.11337204 10.5459613 -1.11344757 9.62530884 -1.11352539 8.67675781 C-1.115746 7.8684552 -1.11796661 7.06015259 -1.12025452 6.22735596 C-1.001452 4.02689405 -0.60974898 2.11251793 0 0 Z " fill="#73828E" transform="translate(62,85)"/>
<path d="M0 0 C0.91007812 0.00902344 1.82015625 0.01804687 2.7578125 0.02734375 C3.80582031 0.04474609 3.80582031 0.04474609 4.875 0.0625 C4.875 0.3925 4.875 0.7225 4.875 1.0625 C3.67875 1.083125 2.4825 1.10375 1.25 1.125 C-2.33841429 1.57197792 -3.85357014 2.38272335 -6.125 5.1875 C-6.59421875 5.81785156 -7.0634375 6.44820313 -7.546875 7.09765625 C-9.29608806 9.2755131 -11.20449306 10.87219853 -13.375 12.625 C-16.82864409 15.53676798 -17.86289725 17.69368279 -19.125 22.0625 C-23.93862373 26.74602579 -28.34283675 28.29053493 -35.02778625 28.28909302 C-35.7675621 28.27877045 -36.50733795 28.26844788 -37.26953125 28.2578125 C-38.03931808 28.2549826 -38.80910492 28.25215271 -39.60221863 28.24923706 C-42.04747425 28.23809157 -44.49235612 28.21299781 -46.9375 28.1875 C-48.60090615 28.1774629 -50.26431807 28.16833833 -51.92773438 28.16015625 C-55.99363237 28.13817073 -60.05925294 28.10368014 -64.125 28.0625 C-63.795 26.7425 -63.465 25.4225 -63.125 24.0625 C-61.92339233 24.04848145 -61.92339233 24.04848145 -60.69750977 24.03417969 C-57.02690881 23.98011061 -53.35753238 23.8965326 -49.6875 23.8125 C-48.42744141 23.79832031 -47.16738281 23.78414062 -45.86914062 23.76953125 C-36.81379354 23.53309921 -29.07888237 22.38778232 -22.25 16 C-21.610625 15.40832031 -20.97125 14.81664063 -20.3125 14.20703125 C-17.11319535 11.07057008 -13.93418072 7.91351488 -10.80517578 4.70678711 C-7.02431482 0.85193803 -5.36192263 -0.0687426 0 0 Z " fill="#3D505F" transform="translate(127.125,86.9375)"/>
<path d="M0 0 C2.8125 0.1875 2.8125 0.1875 5 1 C4.28714844 1.69996094 3.57429688 2.39992188 2.83984375 3.12109375 C0.93752108 5.02207723 -0.89431139 6.96502522 -2.68359375 8.97265625 C-3.13669922 9.47990234 -3.58980469 9.98714844 -4.05664062 10.50976562 C-4.97743555 11.54517152 -5.89411467 12.58425229 -6.80664062 13.62695312 C-11.45806791 18.80620194 -15.88741166 22.50377291 -23 23 C-24 22 -24 22 -24.4375 18.875 C-23.8616278 13.77441763 -21.69302335 11.40548869 -18 8 C-14.79042043 5.86028028 -13.81976811 5.79418783 -10.125 5.6875 C-5.07051754 5.31336559 -3.43764512 3.73230041 0 0 Z " fill="#4E606E" transform="translate(110,80)"/>
<path d="M0 0 C-4.55491614 2.20399168 -9.02906176 2.58846263 -14 3 C-11.525 3.495 -11.525 3.495 -9 4 C-9 4.33 -9 4.66 -9 5 C-20.88 5 -32.76 5 -45 5 C-44.67 3.68 -44.34 2.36 -44 1 C-42.90010742 0.97494385 -41.80021484 0.9498877 -40.66699219 0.92407227 C-36.58175235 0.82981794 -32.49667539 0.72964135 -28.41162109 0.62768555 C-26.64440728 0.58440486 -24.8771535 0.54272495 -23.10986328 0.50268555 C-20.5679114 0.44481649 -18.02615941 0.38117019 -15.484375 0.31640625 C-14.30134796 0.29133751 -14.30134796 0.29133751 -13.09442139 0.26576233 C-8.97582992 0.18613525 -8.97582992 0.18613525 -4.94683838 -0.57533264 C-3 -1 -3 -1 0 0 Z " fill="#394C5A" transform="translate(107,122)"/>
<path d="M0 0 C13.2 0 26.4 0 40 0 C40 1.32 40 2.64 40 4 C35.90661348 4.04939115 31.81334202 4.08571501 27.71972656 4.10986328 C26.32679219 4.11992877 24.93387898 4.13358234 23.54101562 4.15087891 C21.5404564 4.1751022 19.53974385 4.18540814 17.5390625 4.1953125 C16.33459473 4.20578613 15.13012695 4.21625977 13.88916016 4.22705078 C11 4 11 4 9 2 C6.79749008 1.53993654 6.79749008 1.53993654 4.375 1.375 C3.14910156 1.26285156 3.14910156 1.26285156 1.8984375 1.1484375 C1.27195313 1.09945312 0.64546875 1.05046875 0 1 C0 0.67 0 0.34 0 0 Z " fill="#3C4F5E" transform="translate(154,123)"/>
<path d="M0 0 C4.73333862 0.28686901 7.04880858 2.51652573 10.3515625 5.625 C12.0653207 7.22445871 12.0653207 7.22445871 15 8 C15 8.66 15 9.32 15 10 C8.4 10 1.8 10 -5 10 C-5 9.67 -5 9.34 -5 9 C0.445 8.505 0.445 8.505 6 8 C4.515 6.576875 4.515 6.576875 3 5.125 C1.3125 3.5078125 1.3125 3.5078125 0 2 C0 1.34 0 0.68 0 0 Z " fill="#83929C" transform="translate(102,167)"/>
<path d="M0 0 C6.6 0 13.2 0 20 0 C14.72972973 5.27027027 14.72972973 5.27027027 12.5 7.3125 C11.9328125 7.84488281 11.365625 8.37726563 10.78125 8.92578125 C9 10 9 10 6.78125 9.66796875 C6.1934375 9.44753906 5.605625 9.22710937 5 9 C7.33333333 6.66666667 9.66666667 4.33333333 12 2 C8.04 1.67 4.08 1.34 0 1 C0 0.67 0 0.34 0 0 Z " fill="#A3B5C1" transform="translate(96,76)"/>
<path d="M0 0 C6.93 0 13.86 0 21 0 C21 0.33 21 0.66 21 1 C14.565 1.495 14.565 1.495 8 2 C8.969375 2.763125 9.93875 3.52625 10.9375 4.3125 C13.42086332 6.26748815 13.9521672 6.85650159 15 10 C10.89943257 9.47758914 8.8247439 8.36499384 5.8125 5.5625 C5.13832031 4.94503906 4.46414062 4.32757813 3.76953125 3.69140625 C2.49822608 2.47622934 1.24355775 1.24355775 0 0 Z " fill="#9EAFBA" transform="translate(140,76)"/>
<path d="M0 0 C2.97 0 5.94 0 9 0 C9 4.95 9 9.9 9 15 C8.67 15 8.34 15 8 15 C8 11.7 8 8.4 8 5 C5.36 5 2.72 5 0 5 C0 3.35 0 1.7 0 0 Z " fill="#ACBAC4" transform="translate(186,151)"/>
<path d="M0 0 C2.64 0 5.28 0 8 0 C8 2.97 8 5.94 8 9 C7.67 8.01 7.34 7.02 7 6 C4.36 6 1.72 6 -1 6 C-0.67 4.02 -0.34 2.04 0 0 Z " fill="#ADBBC5" transform="translate(171,151)"/>
<path d="M0 0 C2.97 0 5.94 0 9 0 C9 1.98 9 3.96 9 6 C6.36 5.67 3.72 5.34 1 5 C0.67 5.66 0.34 6.32 0 7 C0 4.69 0 2.38 0 0 Z " fill="#A7B5BE" transform="translate(77,151)"/>
<path d="M0 0 C2.97 0 5.94 0 9 0 C9 2.97 9 5.94 9 9 C8.67 7.68 8.34 6.36 8 5 C5.36 5 2.72 5 0 5 C0 3.35 0 1.7 0 0 Z " fill="#97A6B4" transform="translate(62,151)"/>
<path d="M0 0 C1.5778125 0.1546875 1.5778125 0.1546875 3.1875 0.3125 C2.630625 0.704375 2.07375 1.09625 1.5 1.5 C-1.15729432 3.58274419 -3.45893674 5.89532693 -5.8125 8.3125 C-6.8125 9.3125 -6.8125 9.3125 -10.375 9.375 C-11.509375 9.354375 -12.64375 9.33375 -13.8125 9.3125 C-13.090625 8.755625 -12.36875 8.19875 -11.625 7.625 C-8.74137004 5.38716063 -8.74137004 5.38716063 -6.4375 2.5625 C-3.8125 0.3125 -3.8125 0.3125 0 0 Z " fill="#9CAFB9" transform="translate(154.8125,166.6875)"/>
<path d="M0 0 C-2.02068367 1.08250911 -3.76149569 1.95248367 -6.01953125 2.40234375 C-8.65020022 3.19621427 -9.82802195 4.5658804 -11.6875 6.5625 C-12.77714899 7.72214785 -13.87775649 8.87186545 -15 10 C-15.33 10 -15.66 10 -16 10 C-16.375 7.8125 -16.375 7.8125 -16 5 C-11.26167287 -0.61117687 -7.06347671 -0.62817481 0 0 Z " fill="#40505E" transform="translate(104,87)"/>
<path d="M0 0 C4.29951803 1.59241408 6.39671947 4.35540725 9 8 C8.67 8.99 8.34 9.98 8 11 C4.19986075 9.50708815 2.25081784 7.37622677 0 4 C0 2.68 0 1.36 0 0 Z " fill="#334252" transform="translate(105,162)"/>
<path d="M0 0 C4.62 0 9.24 0 14 0 C14 0.66 14 1.32 14 2 C14.99 2.33 15.98 2.66 17 3 C11.72 3 6.44 3 1 3 C0.67 2.01 0.34 1.02 0 0 Z " fill="#324554" transform="translate(64,136)"/>
<path d="M0 0 C0.91007812 0.00902344 1.82015625 0.01804687 2.7578125 0.02734375 C3.80582031 0.04474609 3.80582031 0.04474609 4.875 0.0625 C4.875 0.3925 4.875 0.7225 4.875 1.0625 C3.6375 1.145 2.4 1.2275 1.125 1.3125 C-2.92265484 1.81045402 -4.44804076 2.92399607 -7.125 6.0625 C-8.78032623 7.08116229 -10.44760138 8.08060813 -12.125 9.0625 C-13.80977344 10.37287934 -15.48148543 11.70073078 -17.125 13.0625 C-15.65938126 9.66562324 -13.75852456 7.45527314 -11.125 4.875 C-10.073125 3.83279297 -10.073125 3.83279297 -9 2.76953125 C-5.93598077 -0.02000292 -4.05097135 -0.05193553 0 0 Z " fill="#3A4D5B" transform="translate(127.125,86.9375)"/>
<path d="M0 0 C1.65 0.33 3.3 0.66 5 1 C4.29875 1.680625 3.5975 2.36125 2.875 3.0625 C-0.27934337 6.20780513 -3.13934304 9.5888386 -6 13 C-6.33 11.68 -6.66 10.36 -7 9 C-6.34 9 -5.68 9 -5 9 C-4.5978125 8.1646875 -4.5978125 8.1646875 -4.1875 7.3125 C-2.89877353 4.80287477 -1.47073522 2.40665764 0 0 Z " fill="#3F6786" transform="translate(110,80)"/>
<path d="M0 0 C0.33 0 0.66 0 1 0 C1 1.65 1 3.3 1 5 C3.97 5 6.94 5 10 5 C10.33 5.99 10.66 6.98 11 8 C7.04 8 3.08 8 -1 8 C-0.67 5.36 -0.34 2.72 0 0 Z " fill="#2F495C" transform="translate(76,95)"/>
<path d="M0 0 C3.78520613 0.54074373 5.59177555 2.07572746 8 5 C8 5.99 8 6.98 8 8 C4.12867972 7.42647107 1.91827204 5.51295648 -1 3 C-0.67 2.01 -0.34 1.02 0 0 Z " fill="#30485B" transform="translate(142,79)"/>
<path d="M0 0 C0.33 0 0.66 0 1 0 C1 2.31 1 4.62 1 7 C3.31 7.33 5.62 7.66 8 8 C8 5.69 8 3.38 8 1 C8.33 1 8.66 1 9 1 C9 3.97 9 6.94 9 10 C6.03 10 3.06 10 0 10 C0 6.7 0 3.4 0 0 Z " fill="#C3D0D5" transform="translate(62,90)"/>
<path d="M0 0 C0.99 0.66 1.98 1.32 3 2 C2.13375 2.515625 1.2675 3.03125 0.375 3.5625 C-3.46201739 6.09310433 -6.16675882 9.42328418 -9 13 C-9.703125 11.2265625 -9.703125 11.2265625 -10 9 C-8.671875 7.1484375 -8.671875 7.1484375 -6.75 5.375 C-6.12609375 4.78460938 -5.5021875 4.19421875 -4.859375 3.5859375 C-3 2 -3 2 0 0 Z " fill="#486070" transform="translate(119,94)"/>
<path d="M0 0 C0.33 0 0.66 0 1 0 C1 2.31 1 4.62 1 7 C-1.64 7 -4.28 7 -7 7 C-7.33 5.68 -7.66 4.36 -8 3 C-5.36 3.33 -2.72 3.66 0 4 C0 2.68 0 1.36 0 0 Z " fill="#B4C2CA" transform="translate(178,93)"/>
<path d="M0 0 C0.66 0.33 1.32 0.66 2 1 C0.92807816 2.3218362 -0.15802695 3.63217927 -1.25 4.9375 C-1.85328125 5.66839844 -2.4565625 6.39929688 -3.078125 7.15234375 C-5.10741134 9.10326334 -6.254407 9.61731779 -9 10 C-3.9977221 2.51708428 -3.9977221 2.51708428 0 0 Z " fill="#A9B6BC" transform="translate(76,65)"/>
<path d="M0 0 C0.33 0.99 0.66 1.98 1 3 C3.31 3 5.62 3 8 3 C8.33 3.99 8.66 4.98 9 6 C6.03 6 3.06 6 0 6 C0 4.02 0 2.04 0 0 Z " fill="#AABDC7" transform="translate(77,94)"/>
<path d="M0 0 C3.3 0 6.6 0 10 0 C9.01 1.485 9.01 1.485 8 3 C5.8359375 3.29296875 5.8359375 3.29296875 3.375 3.1875 C2.55773437 3.16042969 1.74046875 3.13335937 0.8984375 3.10546875 C0.27195313 3.07066406 -0.35453125 3.03585938 -1 3 C-0.67 2.01 -0.34 1.02 0 0 Z " fill="#2F4C64" transform="translate(170,100)"/>
<path d="M0 0 C2.97 0 5.94 0 9 0 C9 0.99 9 1.98 9 3 C6.03 3 3.06 3 0 3 C0 2.01 0 1.02 0 0 Z " fill="#2E4454" transform="translate(185,100)"/>
<path d="M0 0 C0.66 0.99 1.32 1.98 2 3 C0.25 5.0625 0.25 5.0625 -2 7 C-4.25 6.75 -4.25 6.75 -6 6 C-4 4 -2 2 0 0 Z " fill="#ACBFC9" transform="translate(107,79)"/>
<path d="M0 0 C2.64 0 5.28 0 8 0 C8 0.99 8 1.98 8 3 C5.36 3 2.72 3 0 3 C0 2.01 0 1.02 0 0 Z " fill="#2F4A5F" transform="translate(63,100)"/>
<path d="M0 0 C3.3 0 6.6 0 10 0 C9.01 1.485 9.01 1.485 8 3 C5.03 2.67 2.06 2.34 -1 2 C-0.67 1.34 -0.34 0.68 0 0 Z " fill="#425260" transform="translate(93,69)"/>
<path d="M0 0 C1.65 0 3.3 0 5 0 C5 1.32 5 2.64 5 4 C2.36 4 -0.28 4 -3 4 C-2.34 3.01 -1.68 2.02 -1 1 C-1 1.66 -1 2.32 -1 3 C-0.34 2.67 0.32 2.34 1 2 C0.67 1.34 0.34 0.68 0 0 Z " fill="#AFC0CC" transform="translate(65,152)"/>
<path d="M0 0 C-1.15093722 3.45281166 -2.3205993 4.38082163 -5.0625 6.6875 C-5.79597656 7.31011719 -6.52945313 7.93273437 -7.28515625 8.57421875 C-7.85105469 9.04472656 -8.41695313 9.51523438 -9 10 C-9 7 -9 7 -7.5390625 5.17578125 C-6.90742187 4.56089844 -6.27578125 3.94601563 -5.625 3.3125 C-4.68527344 2.37857422 -4.68527344 2.37857422 -3.7265625 1.42578125 C-2 0 -2 0 0 0 Z " fill="#2F4350" transform="translate(120,90)"/>
<path d="M0 0 C2.75 0.25 2.75 0.25 5 1 C2.64031256 3.09749995 1.45383006 3.96905704 -1.75 4.1875 C-2.86375 4.0946875 -2.86375 4.0946875 -4 4 C-2.3125 1.9375 -2.3125 1.9375 0 0 Z " fill="#3D5C71" transform="translate(115,77)"/>
<path d="M0 0 C3.63 0 7.26 0 11 0 C10.67 0.66 10.34 1.32 10 2 C6.76902047 2.86159454 4.77513726 3.30597523 1.625 2.0625 C1.08875 1.711875 0.5525 1.36125 0 1 C0 0.67 0 0.34 0 0 Z " fill="#3F525E" transform="translate(117,69)"/>
<path d="M0 0 C4.29 0 8.58 0 13 0 C13 0.33 13 0.66 13 1 C12.21753906 1.04898438 11.43507813 1.09796875 10.62890625 1.1484375 C9.61699219 1.22320312 8.60507813 1.29796875 7.5625 1.375 C6.55316406 1.44460937 5.54382813 1.51421875 4.50390625 1.5859375 C3.26447266 1.79089844 3.26447266 1.79089844 2 2 C1.67 2.66 1.34 3.32 1 4 C0.34 4 -0.32 4 -1 4 C-0.67 2.68 -0.34 1.36 0 0 Z " fill="#405361" transform="translate(63,123)"/>
<path d="M0 0 C0.99 0.33 1.98 0.66 3 1 C1.35 2.98 -0.3 4.96 -2 7 C-2.33 5.68 -2.66 4.36 -3 3 C-2.34 3 -1.68 3 -1 3 C-0.67 2.01 -0.34 1.02 0 0 Z " fill="#557891" transform="translate(106,86)"/>
<path d="M0 0 C4.75 0.75 4.75 0.75 7 3 C4.69 3 2.38 3 0 3 C0 2.01 0 1.02 0 0 Z " fill="#A3B3BF" transform="translate(109,173)"/>
<path d="M0 0 C1.32 0 2.64 0 4 0 C4 1.32 4 2.64 4 4 C2.35 4 0.7 4 -1 4 C-0.67 2.68 -0.34 1.36 0 0 Z " fill="#445969" transform="translate(191,135)"/>
<path d="M0 0 C-1.15173355 2.46800047 -2.04783565 4.04783565 -4 6 C-4.99 5.67 -5.98 5.34 -7 5 C-2.25 0 -2.25 0 0 0 Z " fill="#4D5C68" transform="translate(82,75)"/>
</svg>
